<svg width="317" height="83" viewBox="0 0 317 83" fill="none" xmlns="http://www.w3.org/2000/svg">
    <g clip-path="url(#clip0)">
        <rect width="317" height="83" rx="12" fill="#1976D2"/>
        <path d="M65.774 40.522C66.114 40.522 66.386 40.624 66.59 40.828C66.8167 41.032 66.93 41.3153 66.93 41.678V50.144C66.93 50.688 66.8393 51.096 66.658 51.368C66.4993 51.64 66.1933 51.8553 65.74 52.014C64.8333 52.3993 63.734 52.7053 62.442 52.932C61.15 53.1587 59.858 53.272 58.566 53.272C56.186 53.272 54.1347 52.7847 52.412 51.81C50.6893 50.8353 49.3633 49.43 48.434 47.594C47.5273 45.758 47.074 43.5593 47.074 40.998C47.074 38.482 47.5273 36.306 48.434 34.47C49.3407 32.634 50.644 31.2287 52.344 30.254C54.044 29.2567 56.0387 28.758 58.328 28.758C59.9147 28.758 61.388 29.0073 62.748 29.506C64.108 29.982 65.2527 30.6733 66.182 31.58C66.5673 31.9653 66.76 32.362 66.76 32.77C66.76 33.0873 66.6693 33.3707 66.488 33.62C66.3067 33.8467 66.08 33.96 65.808 33.96C65.536 33.96 65.2187 33.824 64.856 33.552C63.6773 32.6453 62.612 32.022 61.66 31.682C60.708 31.3193 59.6087 31.138 58.362 31.138C55.6647 31.138 53.5907 31.988 52.14 33.688C50.712 35.388 49.998 37.8247 49.998 40.998C49.998 44.2393 50.7233 46.71 52.174 48.41C53.6473 50.0873 55.8007 50.926 58.634 50.926C60.742 50.926 62.6573 50.6087 64.38 49.974V42.698H59.416C59.0307 42.698 58.7247 42.596 58.498 42.392C58.2713 42.188 58.158 41.9273 58.158 41.61C58.158 41.27 58.2713 41.0093 58.498 40.828C58.7247 40.624 59.0307 40.522 59.416 40.522H65.774ZM84.9715 49.158C85.2208 49.158 85.4362 49.26 85.6175 49.464C85.7988 49.668 85.8895 49.9287 85.8895 50.246C85.8895 50.8127 85.4929 51.334 84.6995 51.81C83.8835 52.286 83.0222 52.6487 82.1155 52.898C81.2088 53.1247 80.3248 53.238 79.4635 53.238C76.9022 53.238 74.8735 52.4787 73.3775 50.96C71.9042 49.4413 71.1675 47.3447 71.1675 44.67C71.1675 42.97 71.4962 41.474 72.1535 40.182C72.8108 38.8673 73.7288 37.8473 74.9075 37.122C76.1088 36.3967 77.4688 36.034 78.9875 36.034C81.1408 36.034 82.8522 36.7367 84.1215 38.142C85.3908 39.5473 86.0255 41.4513 86.0255 43.854C86.0255 44.3073 85.9348 44.636 85.7535 44.84C85.5722 45.044 85.2775 45.146 84.8695 45.146H73.9215C74.1255 49.0447 75.9728 50.994 79.4635 50.994C80.3475 50.994 81.1068 50.8807 81.7415 50.654C82.3762 50.4047 83.0562 50.076 83.7815 49.668C84.3708 49.328 84.7675 49.158 84.9715 49.158ZM79.0215 38.176C77.5708 38.176 76.4035 38.6293 75.5195 39.536C74.6582 40.4427 74.1482 41.7233 73.9895 43.378H83.6115C83.5662 41.7007 83.1468 40.42 82.3535 39.536C81.5602 38.6293 80.4495 38.176 79.0215 38.176ZM97.6336 50.994C98.4269 51.062 98.8236 51.4247 98.8236 52.082C98.8236 52.4673 98.6763 52.762 98.3816 52.966C98.1096 53.1473 97.6903 53.2153 97.1236 53.17L96.2056 53.102C94.3923 52.966 93.0549 52.422 92.1936 51.47C91.3323 50.518 90.9016 49.0787 90.9016 47.152V38.618H88.6236C88.2383 38.618 87.9323 38.5273 87.7056 38.346C87.5016 38.142 87.3996 37.8813 87.3996 37.564C87.3996 37.224 87.5016 36.952 87.7056 36.748C87.9323 36.544 88.2383 36.442 88.6236 36.442H90.9016V32.6C90.9016 32.1693 91.0263 31.8407 91.2756 31.614C91.5249 31.3647 91.8649 31.24 92.2956 31.24C92.7036 31.24 93.0323 31.3647 93.2816 31.614C93.5309 31.8407 93.6556 32.1693 93.6556 32.6V36.442H97.4296C97.7923 36.442 98.0756 36.544 98.2796 36.748C98.5063 36.952 98.6196 37.224 98.6196 37.564C98.6196 37.8813 98.5063 38.142 98.2796 38.346C98.0756 38.5273 97.7923 38.618 97.4296 38.618H93.6556V47.288C93.6556 48.5347 93.9049 49.4413 94.4036 50.008C94.9249 50.552 95.6956 50.858 96.7156 50.926L97.6336 50.994ZM115.88 53.238C114.837 53.238 113.84 53.1133 112.888 52.864C111.959 52.6147 111.131 52.2633 110.406 51.81C109.998 51.538 109.703 51.2887 109.522 51.062C109.363 50.8127 109.284 50.518 109.284 50.178C109.284 49.8833 109.363 49.6453 109.522 49.464C109.703 49.26 109.93 49.158 110.202 49.158C110.474 49.158 110.871 49.328 111.392 49.668C112.072 50.076 112.741 50.4047 113.398 50.654C114.078 50.8807 114.917 50.994 115.914 50.994C117.138 50.994 118.09 50.7787 118.77 50.348C119.45 49.9173 119.79 49.294 119.79 48.478C119.79 47.9793 119.665 47.5827 119.416 47.288C119.167 46.9707 118.736 46.6987 118.124 46.472C117.512 46.2227 116.617 45.9733 115.438 45.724C113.443 45.2933 112.015 44.7153 111.154 43.99C110.293 43.2647 109.862 42.2787 109.862 41.032C109.862 40.0573 110.134 39.196 110.678 38.448C111.222 37.7 111.97 37.1107 112.922 36.68C113.897 36.2493 114.996 36.034 116.22 36.034C117.104 36.034 117.954 36.1587 118.77 36.408C119.609 36.6347 120.345 36.9633 120.98 37.394C121.751 37.938 122.136 38.5047 122.136 39.094C122.136 39.3887 122.045 39.638 121.864 39.842C121.683 40.046 121.467 40.148 121.218 40.148C120.946 40.148 120.538 39.9553 119.994 39.57C119.359 39.162 118.759 38.8447 118.192 38.618C117.625 38.3913 116.923 38.278 116.084 38.278C115.019 38.278 114.157 38.516 113.5 38.992C112.865 39.468 112.548 40.1027 112.548 40.896C112.548 41.3947 112.661 41.8027 112.888 42.12C113.137 42.4147 113.534 42.6867 114.078 42.936C114.645 43.1627 115.449 43.3893 116.492 43.616C118.033 43.956 119.223 44.33 120.062 44.738C120.923 45.146 121.535 45.6447 121.898 46.234C122.261 46.8233 122.442 47.5713 122.442 48.478C122.442 49.906 121.841 51.062 120.64 51.946C119.439 52.8073 117.852 53.238 115.88 53.238ZM134.124 50.994C134.917 51.062 135.314 51.4247 135.314 52.082C135.314 52.4673 135.166 52.762 134.872 52.966C134.6 53.1473 134.18 53.2153 133.614 53.17L132.696 53.102C130.882 52.966 129.545 52.422 128.684 51.47C127.822 50.518 127.392 49.0787 127.392 47.152V38.618H125.114C124.728 38.618 124.422 38.5273 124.196 38.346C123.992 38.142 123.89 37.8813 123.89 37.564C123.89 37.224 123.992 36.952 124.196 36.748C124.422 36.544 124.728 36.442 125.114 36.442H127.392V32.6C127.392 32.1693 127.516 31.8407 127.766 31.614C128.015 31.3647 128.355 31.24 128.786 31.24C129.194 31.24 129.522 31.3647 129.772 31.614C130.021 31.8407 130.146 32.1693 130.146 32.6V36.442H133.92C134.282 36.442 134.566 36.544 134.77 36.748C134.996 36.952 135.11 37.224 135.11 37.564C135.11 37.8813 134.996 38.142 134.77 38.346C134.566 38.5273 134.282 38.618 133.92 38.618H130.146V47.288C130.146 48.5347 130.395 49.4413 130.894 50.008C131.415 50.552 132.186 50.858 133.206 50.926L134.124 50.994ZM144.795 36.034C148.943 36.034 151.017 38.21 151.017 42.562V51.81C151.017 52.218 150.892 52.5467 150.643 52.796C150.416 53.0453 150.099 53.17 149.691 53.17C149.283 53.17 148.954 53.0453 148.705 52.796C148.455 52.5467 148.331 52.218 148.331 51.81V50.178C147.9 51.1527 147.243 51.912 146.359 52.456C145.475 52.9773 144.455 53.238 143.299 53.238C142.233 53.238 141.247 53.0227 140.341 52.592C139.457 52.1613 138.754 51.5607 138.233 50.79C137.711 50.0193 137.451 49.1693 137.451 48.24C137.451 46.9933 137.768 46.03 138.403 45.35C139.037 44.6473 140.08 44.1487 141.531 43.854C142.981 43.5367 144.999 43.378 147.583 43.378H148.331V42.256C148.331 40.896 148.047 39.8987 147.481 39.264C146.937 38.6293 146.041 38.312 144.795 38.312C143.253 38.312 141.689 38.7313 140.103 39.57C139.491 39.9553 139.06 40.148 138.811 40.148C138.539 40.148 138.312 40.046 138.131 39.842C137.949 39.638 137.859 39.3773 137.859 39.06C137.859 38.7427 137.949 38.4707 138.131 38.244C138.335 37.9947 138.652 37.7453 139.083 37.496C139.876 37.0427 140.771 36.6913 141.769 36.442C142.789 36.17 143.797 36.034 144.795 36.034ZM143.673 51.062C145.033 51.062 146.143 50.6087 147.005 49.702C147.889 48.7727 148.331 47.5827 148.331 46.132V45.146H147.719C145.724 45.146 144.205 45.2367 143.163 45.418C142.12 45.5767 141.372 45.86 140.919 46.268C140.488 46.6533 140.273 47.2313 140.273 48.002C140.273 48.886 140.59 49.6227 141.225 50.212C141.882 50.7787 142.698 51.062 143.673 51.062ZM164.252 36.102C165.204 36.034 165.68 36.4193 165.68 37.258C165.68 37.6207 165.578 37.9153 165.374 38.142C165.17 38.346 164.818 38.4707 164.32 38.516L163.3 38.618C161.781 38.754 160.648 39.298 159.9 40.25C159.174 41.1793 158.812 42.2787 158.812 43.548V51.81C158.812 52.2633 158.687 52.6033 158.438 52.83C158.188 53.0567 157.86 53.17 157.452 53.17C157.044 53.17 156.704 53.0567 156.432 52.83C156.182 52.5807 156.058 52.2407 156.058 51.81V37.462C156.058 37.0313 156.194 36.7027 156.466 36.476C156.738 36.2267 157.066 36.102 157.452 36.102C157.814 36.102 158.12 36.2267 158.37 36.476C158.619 36.7027 158.744 37.02 158.744 37.428V39.332C159.22 38.3347 159.888 37.5753 160.75 37.054C161.634 36.5327 162.642 36.2267 163.776 36.136L164.252 36.102ZM177.022 50.994C177.816 51.062 178.212 51.4247 178.212 52.082C178.212 52.4673 178.065 52.762 177.77 52.966C177.498 53.1473 177.079 53.2153 176.512 53.17L175.594 53.102C173.781 52.966 172.444 52.422 171.582 51.47C170.721 50.518 170.29 49.0787 170.29 47.152V38.618H168.012C167.627 38.618 167.321 38.5273 167.094 38.346C166.89 38.142 166.788 37.8813 166.788 37.564C166.788 37.224 166.89 36.952 167.094 36.748C167.321 36.544 167.627 36.442 168.012 36.442H170.29V32.6C170.29 32.1693 170.415 31.8407 170.664 31.614C170.914 31.3647 171.254 31.24 171.684 31.24C172.092 31.24 172.421 31.3647 172.67 31.614C172.92 31.8407 173.044 32.1693 173.044 32.6V36.442H176.818C177.181 36.442 177.464 36.544 177.668 36.748C177.895 36.952 178.008 37.224 178.008 37.564C178.008 37.8813 177.895 38.142 177.668 38.346C177.464 38.5273 177.181 38.618 176.818 38.618H173.044V47.288C173.044 48.5347 173.294 49.4413 173.792 50.008C174.314 50.552 175.084 50.858 176.104 50.926L177.022 50.994ZM193.745 49.158C193.994 49.158 194.21 49.26 194.391 49.464C194.572 49.668 194.663 49.9287 194.663 50.246C194.663 50.8127 194.266 51.334 193.473 51.81C192.657 52.286 191.796 52.6487 190.889 52.898C189.982 53.1247 189.098 53.238 188.237 53.238C185.676 53.238 183.647 52.4787 182.151 50.96C180.678 49.4413 179.941 47.3447 179.941 44.67C179.941 42.97 180.27 41.474 180.927 40.182C181.584 38.8673 182.502 37.8473 183.681 37.122C184.882 36.3967 186.242 36.034 187.761 36.034C189.914 36.034 191.626 36.7367 192.895 38.142C194.164 39.5473 194.799 41.4513 194.799 43.854C194.799 44.3073 194.708 44.636 194.527 44.84C194.346 45.044 194.051 45.146 193.643 45.146H182.695C182.899 49.0447 184.746 50.994 188.237 50.994C189.121 50.994 189.88 50.8807 190.515 50.654C191.15 50.4047 191.83 50.076 192.555 49.668C193.144 49.328 193.541 49.158 193.745 49.158ZM187.795 38.176C186.344 38.176 185.177 38.6293 184.293 39.536C183.432 40.4427 182.922 41.7233 182.763 43.378H192.385C192.34 41.7007 191.92 40.42 191.127 39.536C190.334 38.6293 189.223 38.176 187.795 38.176ZM212.151 28.86C212.581 28.86 212.921 28.9847 213.171 29.234C213.42 29.4833 213.545 29.8007 213.545 30.186V51.81C213.545 52.218 213.42 52.5467 213.171 52.796C212.921 53.0453 212.581 53.17 212.151 53.17C211.72 53.17 211.38 53.0453 211.131 52.796C210.904 52.5467 210.791 52.218 210.791 51.81V49.974C210.292 51.0167 209.555 51.8213 208.581 52.388C207.629 52.9547 206.507 53.238 205.215 53.238C203.764 53.238 202.483 52.8753 201.373 52.15C200.262 51.4247 199.401 50.416 198.789 49.124C198.177 47.8093 197.871 46.2907 197.871 44.568C197.871 42.868 198.177 41.372 198.789 40.08C199.401 38.788 200.262 37.7907 201.373 37.088C202.483 36.3853 203.764 36.034 205.215 36.034C206.507 36.034 207.629 36.3173 208.581 36.884C209.555 37.4507 210.292 38.2553 210.791 39.298V30.186C210.791 29.778 210.904 29.4607 211.131 29.234C211.38 28.9847 211.72 28.86 212.151 28.86ZM205.759 50.96C207.368 50.96 208.603 50.416 209.465 49.328C210.349 48.2173 210.791 46.6533 210.791 44.636C210.791 42.6187 210.349 41.066 209.465 39.978C208.603 38.89 207.368 38.346 205.759 38.346C204.149 38.346 202.891 38.89 201.985 39.978C201.101 41.066 200.659 42.596 200.659 44.568C200.659 46.5853 201.101 48.1607 201.985 49.294C202.891 50.4047 204.149 50.96 205.759 50.96Z"
              fill="white"/>
        <path d="M259.875 31.2917L257.819 33.3479L264.498 40.0417H240.917V42.9584H264.498L257.804 49.6521L259.875 51.7084L270.084 41.5L259.875 31.2917Z"
              fill="white"/>
    </g>
    <defs>
        <clipPath id="clip0">
            <rect width="317" height="83" rx="12" fill="white"/>
        </clipPath>
    </defs>
</svg>
